<svg width="16" height="16" viewBox="0 0 16 16" fill="none" xmlns="http://www.w3.org/2000/svg">
<path d="M8 0C3.58 0 0 3.58 0 8C0 11.54 2.29 14.47 5.47 15.54C5.88 15.62 6 15.39 6 15.21V13.73C3.82 14.09 3.34 12.99 3.34 12.99C3.03 12.25 2.5 12.04 2.5 12.04C1.77 11.57 2.56 11.58 2.56 11.58C3.37 11.64 3.78 12.42 3.78 12.42C4.47 13.5 5.57 13.15 6 12.96C6.08 12.47 6.27 12.14 6.47 11.96C4.77 11.77 2.92 11.04 2.92 7.86C2.92 6.96 3.29 6.21 3.88 5.64C3.8 5.44 3.48 4.59 3.96 3.47C3.96 3.47 4.68 3.24 6 4.26C6.65 4.09 7.34 4 8 4C8.66 4 9.35 4.09 10 4.26C11.32 3.24 12.04 3.47 12.04 3.47C12.52 4.59 12.2 5.44 12.12 5.64C12.71 6.21 13.08 6.96 13.08 7.86C13.08 11.05 11.23 11.77 9.53 11.96C9.8 12.22 10 12.71 10 13.39V15.21C10 15.39 10.12 15.62 10.53 15.54C13.71 14.47 16 11.54 16 8C16 3.58 12.42 0 8 0Z" fill="white"/>
</svg>
